<svg xmlns="http://www.w3.org/2000/svg" viewBox="0 0 1200 800" width="1200" height="800"><g transform="translate(91.0 6.0) rotate(0.0 507.5 393.5) scale(7.574626865671642 7.5673076923076925)"><svg width="134" height="104" viewBox="0 0 134 104"><clipPath id="a"><path d="M0 0h133.793v103.758H0z"/></clipPath><g clip-path="url(#a)"><path d="M39.6 95.723c3.135-9.726 17.72-16.286 28.822-8-4.143-17.989-9.81-21.61-9.81-21.61l-24.143 11.95z" fill="#FF4500"/><path d="M39.6 96.725h-.014a1 1 0 0 1-.946-.72l-5.13-17.66a1 1 0 0 1 .516-1.176l24.141-11.948a1.001 1.001 0 0 1 .982.053c.245.158 6.061 4.05 10.246 22.23a1 1 0 0 1-1.573 1.025 17.763 17.763 0 0 0-16.214-2.7c-5.34 1.7-9.578 5.612-11.057 10.2a1 1 0 0 1-.95.696zm-3.937-18.134 4.125 14.2a20.159 20.159 0 0 1 27.065-7.279c-3.224-12.555-7.125-17.036-8.38-18.212z" fill="#FF4500"/><path d="m132.638 69.916-31.923 8.853-32.29 8.954a11.511 11.511 0 0 0-5.563-9.56A14.498 14.498 0 0 0 51.4 76.836 16.854 16.854 0 0 0 41 85.664a16.091 16.091 0 0 0-1.4 10.057l-25.37 7.033-3.93-14.578a10.48 10.48 0 0 0 5.742-6.81 11.015 11.015 0 0 0-3.39-10.766 11.765 11.765 0 0 0-7.86-2.8L1.007 53.775s8.1-8.092 18.235-17.944c1.904.396 3.853.53 5.793.4a11.633 11.633 0 0 0 7.493-3.119 9.33 9.33 0 0 0 1.547-10.476 9.31 9.31 0 0 0-.384-.692c8.194-7.767 15.978-14.9 20.66-18.6 25.618-6.314 59.976.966 68.487 11.613 8.511 10.647 10.604 41.937 9.8 54.96z" fill="orange"/><path d="m132.638 69.916-31.923 8.853C121.129 69.224 142 20.5 109.089 35.285 93.264 42.4 72.193 37.5 91.931 24.81 106.517 15.435 77.07 7.377 63.46 11.65c-10.544 3.315-13.96-4.23-9.108-8.306 25.617-6.314 59.975.966 68.486 11.613 8.511 10.647 10.604 41.937 9.8 54.96z" fill="gold"/><g fill="#FF4500"><path d="M14.23 103.759a.997.997 0 0 1-.965-.74l-3.94-14.577a1 1 0 0 1 .552-1.17 9.516 9.516 0 0 0 5.187-6.148 9.984 9.984 0 0 0-3.075-9.769 10.73 10.73 0 0 0-7.171-2.554 1.006 1.006 0 0 1-.995-.74L.038 54.041a1 1 0 0 1 .262-.968c.082-.08 8.22-8.21 18.244-17.953a1.01 1.01 0 0 1 .913-.26c1.807.375 3.658.503 5.5.381a10.633 10.633 0 0 0 6.854-2.823 8.292 8.292 0 0 0 1.366-9.325 8.342 8.342 0 0 0-.342-.619A1 1 0 0 1 33 21.225c9.6-9.1 16.575-15.377 20.729-18.66a.993.993 0 0 1 .38-.186c26.5-6.534 60.943 1.246 69.507 11.96 8.716 10.891 10.852 42.118 10.017 55.643a.999.999 0 0 1-.731.9l-64.214 17.81a1 1 0 0 1-1.268-.966 10.485 10.485 0 0 0-5.083-8.706 13.551 13.551 0 0 0-10.661-1.219 15.853 15.853 0 0 0-9.776 8.3 15 15 0 0 0-1.33 9.4 1 1 0 0 1-.707 1.19L14.5 103.722a.985.985 0 0 1-.27.036zm-2.761-15.05 3.464 12.817 23.514-6.517c-.4-3.347.173-6.738 1.65-9.769a17.89 17.89 0 0 1 11.025-9.358 15.57 15.57 0 0 1 12.258 1.432 12.679 12.679 0 0 1 5.964 9.12l62.332-17.286c.747-14.373-1.761-43.736-9.623-53.56-3.993-5-14.172-9.41-27.228-11.809-13.77-2.53-28.343-2.349-40.025.49-4.044 3.216-10.722 9.226-19.86 17.873l.027.054a10.338 10.338 0 0 1-1.731 11.625 12.61 12.61 0 0 1-8.131 3.414c-1.856.123-3.72.019-5.55-.312A2138.16 2138.16 0 0 0 2.12 54.08l3.435 12.728a12.731 12.731 0 0 1 7.753 3.044A12.031 12.031 0 0 1 17 81.622a11.4 11.4 0 0 1-5.531 7.086z"/><path d="M1 54.779a1 1 0 0 1-.3-1.953l121.834-38.814a1 1 0 1 1 .607 1.906L1.3 54.732a.976.976 0 0 1-.3.047zm25.373 9.701a7.911 7.911 0 0 1-.336-7.658 11.733 11.733 0 0 1 5.736-5.374 11.837 11.837 0 0 1 10.377-.139c3.17 1.68 5.21 5.58 4.157 9.008a9.056 9.056 0 0 1-5.6 5.422c-3.998 1.542-11.486 2.993-14.334-1.259z"/><path d="M32.887 68.293c-2.813 0-5.666-.749-7.345-3.256a8.93 8.93 0 0 1-.408-8.645 12.7 12.7 0 0 1 6.216-5.85 12.76 12.76 0 0 1 11.268-.117c3.748 1.985 5.788 6.46 4.645 10.185a9.918 9.918 0 0 1-6.193 6.063 25.202 25.202 0 0 1-8.183 1.62zm4.454-17.124a12.23 12.23 0 0 0-5.141 1.185 10.7 10.7 0 0 0-5.255 4.9 6.893 6.893 0 0 0 .263 6.672c2.5 3.737 9.7 2.211 13.147.882a8.06 8.06 0 0 0 5-4.782c.857-2.793-.789-6.306-3.669-7.832a9.263 9.263 0 0 0-4.345-1.025zm49.865.866a17.756 17.756 0 0 1 12.369-7.146 12.5 12.5 0 0 1 8.585 1.955c4.2 3.024 5.229 9.266 3.146 14s-6.672 8.015-11.582 9.653c-5.135 1.713-11.912 1.108-15.016-4.04-2.485-4.117-.041-10.92 2.498-14.422z"/><path d="M94.486 72.351c-4.136 0-8.31-1.516-10.634-5.372-2.882-4.78.031-12.062 2.544-15.53A18.799 18.799 0 0 1 99.471 43.9a13.432 13.432 0 0 1 9.274 2.14c4.331 3.116 5.858 9.8 3.476 15.216-2.009 4.57-6.449 8.287-12.18 10.2a17.742 17.742 0 0 1-5.555.895zm6.729-26.55c-.513 0-1.026.027-1.536.08a16.775 16.775 0 0 0-11.664 6.74c-2.307 3.183-4.682 9.62-2.45 13.322 2.836 4.706 9.164 5.17 13.843 3.608 5.2-1.735 9.2-5.054 10.982-9.108 2.016-4.584.78-10.2-2.814-12.789a10.836 10.836 0 0 0-6.361-1.854zm5.485-15.476a6.813 6.813 0 0 1 8.706-2.9 6.7 6.7 0 0 1 2.955 8.651c-3.654 7.325-15.651 1.981-11.661-5.75z"/><path d="M112.805 40.559a8.324 8.324 0 0 1-6.845-3.6 6.818 6.818 0 0 1-.151-7.088 7.793 7.793 0 0 1 10.033-3.345 7.692 7.692 0 0 1 3.411 9.995 7.03 7.03 0 0 1-6.008 4.029 10.69 10.69 0 0 1-.44.009zm-5.219-9.775a4.802 4.802 0 0 0 .052 5.083 6.289 6.289 0 0 0 5.493 2.684 5.026 5.026 0 0 0 4.332-2.923 5.404 5.404 0 0 0 .185-4.116 5.476 5.476 0 0 0-2.685-3.192 5.806 5.806 0 0 0-7.377 2.464zM66.538 44.808a8.69 8.69 0 0 0 8.709-14.21 13.886 13.886 0 0 0-6.368-3.61 33.562 33.562 0 0 0-13.524-1.3 8.676 8.676 0 0 0-4.209 1.315 3.576 3.576 0 0 0-1.5 3.88c.669 1.9 3.064 2.4 5.063 2.622 7.382.82 4.752 9.402 11.829 11.303z"/><path d="M68.615 46.076a8.994 8.994 0 0 1-2.336-.3C62.4 44.73 61.09 41.9 59.935 39.4c-1.17-2.534-2.094-4.536-5.335-4.9-1.348-.15-4.93-.547-5.9-3.284a4.6 4.6 0 0 1 1.86-5.016 9.67 9.67 0 0 1 4.686-1.5 34.701 34.701 0 0 1 13.93 1.338 15 15 0 0 1 6.814 3.9 10 10 0 0 1 1.063 11.542 10.06 10.06 0 0 1-8.438 4.597zM58.945 26.5a32.07 32.07 0 0 0-3.482.188 7.788 7.788 0 0 0-3.732 1.133 2.617 2.617 0 0 0-1.142 2.736c.492 1.392 2.651 1.787 4.232 1.962 4.363.484 5.727 3.44 6.93 6.045 1.063 2.306 2.067 4.483 5.046 5.283A7.69 7.69 0 0 0 74.5 31.268a12.706 12.706 0 0 0-5.92-3.325 32.745 32.745 0 0 0-9.635-1.444zm-1.092-14.155a10.626 10.626 0 0 1 10.12-2.742c1.943.524 3.9 1.876 4.181 3.87.32 2.254-1.635 4.232-3.714 5.162-3.813 1.708-16.87.08-10.587-6.29z"/><path d="M64.351 20.258c-3.3 0-7.134-.846-8.586-2.938-.8-1.147-1.2-3.063 1.376-5.677a11.586 11.586 0 0 1 11.092-3.005c2.134.575 4.545 2.11 4.912 4.694.4 2.79-1.873 5.132-4.3 6.217-1.439.52-2.964.761-4.494.71zm1.032-9.99a9.7 9.7 0 0 0-6.818 2.78c-1.3 1.314-1.686 2.368-1.157 3.132 1.467 2.114 8.277 2.6 10.623 1.543 1.683-.753 3.381-2.36 3.133-4.11-.229-1.623-2-2.654-3.452-3.044a8.937 8.937 0 0 0-2.329-.302z"/></g></g></svg></g></svg>